HIERARCHY
ROOT root
{
	OFFSET 0.000000 0.000000 0.000000
	CHANNELS 6 Xposition Yposition Zposition Zrotation Yrotation Xrotation
	JOINT lhip
	{
		OFFSET 0.058581 -0.082280 -0.017664
		CHANNELS 3 Zrotation Yrotation Xrotation
		JOINT lknee
		{
			OFFSET 0.043451 -0.386469 0.008037
			CHANNELS 3 Zrotation Yrotation Xrotation
			JOINT lankle
			{
				OFFSET -0.014790 -0.426874 -0.037428
				CHANNELS 3 Zrotation Yrotation Xrotation
				JOINT ltoe
				{
					OFFSET 0.041054 -0.060286 0.122042
					CHANNELS 3 Zrotation Yrotation Xrotation
					End Site
					{
						OFFSET 0.000000 0.000000 0.000000
					}
				}
			}
		}
	}
	JOINT rhip
	{
		OFFSET -0.060310 -0.090513 -0.013543
		CHANNELS 3 Zrotation Yrotation Xrotation
		JOINT rknee
		{
			OFFSET -0.043257 -0.383688 -0.004843
			CHANNELS 3 Zrotation Yrotation Xrotation
			JOINT rankle
			{
				OFFSET 0.019056 -0.420046 -0.034562
				CHANNELS 3 Zrotation Yrotation Xrotation
				JOINT rtoe
				{
					OFFSET -0.034840 -0.062106 0.130323
					CHANNELS 3 Zrotation Yrotation Xrotation
					End Site
					{
						OFFSET 0.000000 0.000000 0.000000
					}
				}
			}
		}
	}
	JOINT lowerback
	{
		OFFSET 0.004439 0.124404 -0.038385
		CHANNELS 3 Zrotation Yrotation Xrotation
		JOINT upperback
		{
			OFFSET 0.004488 0.137956 0.026820
			CHANNELS 3 Zrotation Yrotation Xrotation
			JOINT chest
			{
				OFFSET -0.002265 0.056032 0.002855
				CHANNELS 3 Zrotation Yrotation Xrotation
				JOINT lowerneck
				{
					OFFSET -0.013390 0.211636 -0.033468
					CHANNELS 3 Zrotation Yrotation Xrotation
					JOINT upperneck
					{
						OFFSET 0.010113 0.088937 0.050410
						CHANNELS 3 Zrotation Yrotation Xrotation
						End Site
						{
							OFFSET 0.000000 0.000000 0.000000
						}
					}
				}
				JOINT lclavicle
				{
					OFFSET 0.071702 0.114000 -0.018898
					CHANNELS 3 Zrotation Yrotation Xrotation
					JOINT lshoulder
					{
						OFFSET 0.122921 0.045205 -0.019046
						CHANNELS 3 Zrotation Yrotation Xrotation
						JOINT lelbow
						{
							OFFSET 0.255332 -0.015649 -0.022946
							CHANNELS 3 Zrotation Yrotation Xrotation
							JOINT lwrist
							{
								OFFSET 0.265709 0.012698 -0.007375
								CHANNELS 3 Zrotation Yrotation Xrotation
								End Site
								{
									OFFSET 0.000000 0.000000 0.000000
								}
							}
						}
					}
				}
				JOINT rclavicle
				{
					OFFSET -0.082954 0.112472 -0.023707
					CHANNELS 3 Zrotation Yrotation Xrotation
					JOINT rshoulder
					{
						OFFSET -0.113228 0.046853 -0.008472
						CHANNELS 3 Zrotation Yrotation Xrotation
						JOINT relbow
						{
							OFFSET -0.260127 -0.014369 -0.031269
							CHANNELS 3 Zrotation Yrotation Xrotation
							JOINT rwrist
							{
								OFFSET -0.269108 0.006794 -0.006027
								CHANNELS 3 Zrotation Yrotation Xrotation
								End Site
								{
									OFFSET 0.000000 0.000000 0.000000
								}
							}
						}
					}
				}
			}
		}
	}
}
MOTION
Frames: 14
Frame Time: 0.033333
2.318620 0.709961 0.988179 -88.044450 -0.809331 83.113391 -1.523756 1.439583 8.010527 0.726436 -8.049651 0.401833 3.486443 13.137950 -11.785881 0.000000 -0.000000 0.000000 0.573973 -3.313167 3.112765 -2.120602 -0.933936 10.019305 0.966015 -10.782117 -16.514955 0.000000 -0.000000 0.000000 -1.137171 0.351089 6.551268 -0.373385 -2.787398 1.294929 1.167015 -1.657210 -2.401198 5.403327 22.752329 -7.195912 4.470731 25.773492 5.966656 -26.643819 -4.409089 0.945173 -53.424313 -4.316524 10.114036 1.717697 -23.145893 6.306724 0.448283 -2.881069 -3.178459 21.326835 4.801241 3.145316 58.101500 5.146882 18.638007 -0.755714 23.976898 9.928946 1.167030 2.825287 1.989589 
2.319531 0.709127 0.988101 -88.144675 -0.837520 83.261432 -1.474807 1.390926 7.640564 0.375016 -7.908831 0.721906 3.312350 13.072888 -11.640535 0.000000 -0.000000 0.000000 0.565949 -3.104566 2.719934 -2.190158 -0.959488 10.353759 1.051920 -11.055970 -16.571584 0.000000 -0.000000 0.000000 -0.878720 0.395855 6.402851 -0.485113 -2.610113 1.213757 0.946867 -1.266679 -2.456221 5.585858 22.652344 -7.065474 4.551618 25.513441 6.170315 -26.599685 -4.285342 0.333372 -53.293573 -4.725408 10.491614 2.468353 -23.017491 7.341830 -1.917664 -2.358703 -1.602907 21.273169 4.323409 2.894023 58.272329 5.167227 18.605188 -1.188846 24.095247 10.428075 2.756417 2.420383 2.426287 
2.320001 0.708721 0.988028 -87.948354 -0.819354 83.265189 -1.590792 1.259816 7.602825 0.556514 -8.005897 0.641926 3.579543 13.128612 -11.612710 0.000000 -0.000000 0.000000 0.642055 -2.959765 2.621306 -2.273339 -1.081878 10.450279 0.969915 -11.297995 -16.691217 0.000000 -0.000000 0.000000 -0.809769 0.373601 6.479861 -0.455741 -2.692062 1.181971 0.923748 -1.173939 -2.483386 5.405988 22.585761 -7.142460 4.481029 25.636835 5.976450 -26.735238 -4.252196 0.162913 -53.238568 -4.662595 10.434090 3.354692 -23.678971 7.432374 -3.577323 -2.145742 -0.820308 21.108672 4.232591 2.792109 58.383155 4.995012 18.446068 -1.696561 24.835969 10.432899 4.590417 2.318752 2.008476 
2.320139 0.708120 0.988002 -87.852151 -0.914221 83.262972 -1.672333 1.145502 7.587094 0.372200 -8.088953 0.616428 3.327325 13.059627 -11.447224 0.000000 -0.000000 0.000000 0.510927 -2.837049 2.529716 -2.257092 -1.133352 10.636987 0.904434 -11.397665 -16.646120 0.000000 -0.000000 0.000000 -0.820592 0.348780 6.522364 -0.491978 -2.652156 0.995305 0.967206 -1.122802 -2.400543 5.351212 22.666139 -6.891910 4.226110 25.761794 5.785273 -26.649114 -4.150464 -0.169898 -53.325940 -5.153739 10.557085 3.622407 -23.234006 8.185230 -4.573336 -2.808003 -0.662383 21.099230 4.139579 2.607476 58.378721 5.016229 18.526865 -1.693969 24.837129 10.878300 5.266256 2.578596 2.140306 
2.320205 0.708049 0.988055 -87.727234 -0.864474 83.310297 -1.536161 1.205313 7.453056 0.223738 -8.107383 0.719715 3.197533 12.894149 -11.467279 0.000000 -0.000000 0.000000 0.534203 -2.946853 2.490433 -2.229346 -1.188153 10.615367 0.938150 -11.367731 -16.622187 0.000000 -0.000000 0.000000 -0.744914 0.351249 6.494730 -0.481462 -2.647920 0.882227 0.984720 -1.183782 -2.361077 5.382143 22.755307 -6.840060 4.161006 25.877971 5.807926 -26.696218 -4.230694 -0.042286 -53.386567 -5.106674 10.684704 3.710963 -23.316433 8.315798 -4.248074 -2.558918 -0.795407 21.043323 4.083331 2.556847 58.532861 5.142264 18.525717 -1.646785 24.856260 10.778861 5.250890 2.254333 1.657655 
2.320093 0.707655 0.988082 -87.439723 -0.806385 83.287552 -1.488131 1.174051 7.485501 0.236726 -8.284408 0.644961 3.011793 12.732706 -11.367093 0.000000 -0.000000 0.000000 0.599519 -3.074509 2.607290 -2.254401 -1.223084 10.493787 0.895603 -11.373966 -16.493979 0.000000 -0.000000 0.000000 -0.746331 0.281061 6.366214 -0.379507 -2.736733 1.088328 1.047682 -1.226186 -2.390897 5.390273 22.929651 -6.949792 4.109666 26.075391 5.943763 -26.836569 -4.233645 0.101064 -53.341308 -5.001693 10.842432 3.498247 -23.695356 8.972079 -3.676841 -2.496946 -0.545189 21.176842 4.143847 2.641435 58.380147 5.258682 18.548739 -1.667365 25.114794 10.695009 4.538502 2.320846 1.616854 
2.320049 0.707052 0.987720 -87.212480 -0.895937 83.289511 -1.682529 1.067635 7.463397 0.316702 -8.350149 0.619964 3.034383 12.718122 -11.365038 0.000000 -0.000000 0.000000 0.471011 -3.047668 2.599820 -2.271904 -1.350432 10.524258 0.901113 -11.450849 -16.592093 0.000000 -0.000000 0.000000 -0.811261 0.244360 6.325824 -0.379131 -2.667183 1.049530 1.096657 -1.307778 -2.288090 5.389210 23.070506 -6.978962 4.178481 26.134113 6.105857 -26.715374 -4.181193 0.159284 -53.609441 -5.130486 10.837831 3.460984 -23.461887 9.428063 -3.912152 -2.854776 -0.526997 21.116286 4.053106 2.603875 58.543568 5.359006 18.544911 -1.761911 25.022384 10.756031 4.555921 2.564064 1.597737 
2.320378 0.706769 0.987657 -86.994476 -0.845773 83.296239 -1.604609 1.013722 7.344995 0.208676 -8.479289 0.756063 3.004006 12.628748 -11.349621 0.000000 -0.000000 0.000000 0.527046 -3.064141 2.581365 -2.302435 -1.400868 10.534674 0.876578 -11.560647 -16.648322 0.000000 -0.000000 0.000000 -0.840921 0.261475 6.430503 -0.301884 -2.627827 0.870575 1.203148 -1.378113 -2.198666 5.445252 23.073346 -6.979525 4.139435 26.214218 6.172544 -26.732387 -4.061748 0.108914 -53.860054 -5.252389 10.836753 3.476107 -23.247687 9.432824 -3.889142 -2.744230 -0.753669 20.980180 3.924423 2.547911 58.686505 5.451290 18.618968 -1.684659 24.967788 10.802300 4.637768 2.383522 1.331925 
2.320660 0.706352 0.987741 -86.766747 -0.919550 83.256312 -1.680478 1.040230 7.425040 0.200129 -8.648624 0.562824 2.941840 12.542808 -11.228044 0.000000 -0.000000 0.000000 0.414857 -3.197812 2.593165 -2.323389 -1.470618 10.587005 0.923125 -11.577708 -16.648530 0.000000 -0.000000 0.000000 -0.915873 0.252169 6.443421 -0.300479 -2.681077 0.912265 1.227770 -1.383619 -2.142435 5.405541 23.224231 -6.804878 4.120518 26.339099 5.834144 -26.797186 -3.925333 0.294803 -53.746756 -4.922762 10.685509 3.255263 -24.104828 9.449445 -3.881507 -2.251083 -0.977064 20.998028 3.935045 2.524155 58.718780 5.482901 18.576915 -1.641437 25.261218 10.843717 4.787666 2.166245 1.125342 
2.319998 0.705812 0.987487 -86.859772 -0.857015 83.090283 -1.611655 1.276316 7.950918 0.294982 -8.715078 -0.022048 2.754098 12.409544 -11.049977 0.000000 -0.000000 0.000000 0.404535 -3.316762 2.829572 -2.314643 -1.427587 10.541170 1.028423 -11.408334 -16.739571 0.000000 -0.000000 0.000000 -0.669225 0.421334 6.374488 -0.378060 -2.509907 1.025806 1.167966 -1.430223 -1.896387 5.411368 23.423323 -6.859476 3.953125 26.251839 5.714715 -26.783359 -3.919336 0.228966 -53.960748 -5.025334 10.582836 3.321408 -23.418991 9.809920 -4.021494 -2.780477 -0.746792 20.946081 3.886379 2.563232 58.868007 5.736418 18.531138 -1.671228 25.247284 11.007068 4.487944 2.311950 1.337039 
2.320585 0.705761 0.987443 -86.671962 -0.815563 83.114823 -1.544296 1.237915 7.769167 0.221168 -8.826574 0.147855 2.620549 12.289019 -10.997612 0.000000 -0.000000 0.000000 0.453844 -3.384655 2.768739 -2.361206 -1.527439 10.558927 0.924882 -11.541194 -16.775140 0.000000 -0.000000 0.000000 -0.648328 0.489910 6.495440 -0.352826 -2.557216 1.047653 1.153418 -1.386674 -1.958395 5.319882 23.402481 -7.113242 3.988047 26.296548 5.653185 -26.843793 -3.971975 0.203604 -53.903653 -4.955444 10.650092 3.234524 -22.957980 9.979452 -4.303616 -2.729173 -0.451871 20.967094 3.880055 2.362679 58.821479 5.528464 18.576170 -1.634484 25.395749 11.198226 4.799675 2.535113 1.463044 
2.320837 0.705576 0.987497 -86.595465 -0.804225 83.182401 -1.549356 1.203820 7.664884 0.201958 -8.816581 0.159709 2.551644 12.261620 -10.958416 0.000000 -0.000000 0.000000 0.459051 -3.438101 2.674820 -2.373164 -1.565220 10.561083 0.927405 -11.514451 -16.641985 0.000000 -0.000000 0.000000 -0.577476 0.548724 6.446455 -0.373647 -2.546685 1.120886 1.086764 -1.299445 -1.944077 5.380410 23.442716 -6.973917 3.852488 26.334777 5.319613 -26.826168 -3.883334 0.085815 -53.847857 -4.857617 10.739776 3.137942 -22.742803 10.033566 -4.367900 -2.943288 -0.270541 20.964817 3.915551 2.406468 58.829680 5.505953 18.573773 -1.649756 25.549326 11.087506 4.790294 2.637065 1.472917 
2.321140 0.705257 0.987614 -86.445267 -0.811536 83.186352 -1.603165 1.162228 7.599678 0.251596 -8.907328 0.195791 2.648020 12.269437 -10.947251 0.000000 -0.000000 0.000000 0.386707 -3.446294 2.664844 -2.316655 -1.618337 10.597005 0.984879 -11.565628 -16.662946 0.000000 -0.000000 0.000000 -0.492095 0.594052 6.519195 -0.462946 -2.537047 1.074761 1.033681 -1.304570 -1.875490 5.350962 23.464858 -7.069835 3.791317 26.373503 5.230610 -26.878315 -3.903311 0.095960 -53.737259 -4.778399 10.651589 3.163003 -22.406025 10.086268 -4.736336 -2.863039 -0.362628 20.939180 3.947996 2.462360 58.868171 5.526270 18.551281 -1.669603 25.644023 11.127742 4.842565 2.627745 1.392627 
2.321293 0.704971 0.987784 -86.384693 -0.855222 83.200771 -1.713773 1.126896 7.585162 0.322041 -8.968398 0.145130 2.739486 12.330265 -10.955952 0.000000 -0.000000 0.000000 0.335934 -3.375750 2.640152 -2.306421 -1.589945 10.629232 0.987733 -11.509329 -16.633942 0.000000 -0.000000 0.000000 -0.473183 0.577703 6.532885 -0.547425 -2.535280 1.192599 1.014147 -1.233287 -1.925926 5.223784 23.598973 -6.972203 3.658176 26.505875 4.994805 -26.622565 -3.897230 0.013682 -53.900245 -4.697291 10.472119 3.191758 -22.120787 9.280842 -5.315057 -2.521582 -0.906103 20.795721 4.043732 2.502184 58.967418 5.571374 18.620807 -1.574326 25.469761 11.065216 5.296024 2.407592 1.326547 
